Coordinates
version=1
nRows=4
nColumns=138
inDegrees=yes

Units are S.I. units (second, meters, Newtons, ...)
If the header above contains a line with 'inDegrees', this indicates whether rotational values are in degrees (yes) or radians (no).

endheader
time	pelvis_tilt	pelvis_list	pelvis_rotation	pelvis_tx	pelvis_ty	pelvis_tz	L5_S1_FE	L5_S1_LB	L5_S1_AR	L4_L5_FE	L4_L5_LB	L4_L5_AR	T12_L1_FE	T12_L1_LB	T12_L1_AR	T11_T12_FE	T11_T12_LB	T11_T12_AR	T10_T11_FE	T10_T11_LB	T10_T11_AR	T9_T10_FE	T9_T10_LB	T9_T10_AR	T8_T9_FE	T8_T9_LB	T8_T9_AR	T1_T2_FE	T1_T2_LB	T1_T2_AR	T1_head_neck_FE	T1_head_neck_LB	T1_head_neck_AR	hip_flexion_r	hip_adduction_r	hip_rotation_r	knee_angle_r	knee_angle_y_r	knee_angle_x_r	ankle_angle_r	subtalar_angle_r	mtp_angle_r	hip_flexion_l	hip_adduction_l	hip_rotation_l	knee_angle_l	knee_angle_y_l	knee_angle_x_l	ankle_angle_l	subtalar_angle_l	mtp_angle_l	skull_z	skull_y	skull_x	sternoclavicular_r2	sternoclavicular_r3	unrotscap_r3	unrotscap_r2	acromioclavicular_r2	acromioclavicular_r3	acromioclavicular_r1	unrothum_r1	unrothum_r3	unrothum_r2	elv_angle	shoulder_elv	shoulder1_r2	shoulder_rot	elbow_flexion	elbow_x	elbow_y	pro_sup	deviation	flexion	thumb_abd	thumb_flex	TCP2M_lateral	TCP2M_flex	TCP2M2_flex	MCP2_lateral	MCP2_flex	PIP_flex	DIP_flex	MCP2M_lateral	MCP2M_flex	MPIP_flex	MDIP_flex	RCP2M_lateral	RCP2M_flex	RPIP_flex	RDIP_flex	LCP2M_lateral	LCP2M_flex	LPIP_flex	LDIP_flex	sternoclavicular_r2_l	sternoclavicular_r3_l	unrotscap_r3_l	unrotscap_r2_l	acromioclavicular_r2_l	acromioclavicular_r3_l	acromioclavicular_r1_l	unrothum_r1_l	unrothum_r3_l	unrothum_r2_l	elv_angle_l	shoulder_elv_l	shoulder1_r2_l	shoulder_rot_l	elbow_flexion_l	elbow_x_l	elbow_y_l	pro_sup_l	deviation_l	flexion_l	thumb_l_abd	thumb_l_flex	TCP2M_l_lateral	TCP2M_l_flex	TCP2M2_l_flex	MCP2_l_lateral	MCP2_l_flex	PIP_l_flex	DIP_l_flex	MCP2M_l_lateral	MCP2M_l_flex	MPIP_l_flex	MDIP_l_flex	RCP2M_l_lateral	RCP2M_l_flex	RPIP_l_flex	RDIP_l_flex	LCP2M_l_lateral	LCP2M_l_flex	LPIP_l_flex	LDIP_l_flex	ribs_bending
      0.00000000	    -20.42713554	     91.04106691	    -70.34030067	      0.27727435	     -0.04097821	      0.92226978	     -7.09089394	     -2.15755152	     -1.63814980	      3.16748478	     -1.94446512	     -0.90789405	      1.31059702	     -0.20522614	     -0.24467934	      0.37660435	      0.19441087	      0.00584273	      0.00969229	      0.37993819	     -0.07924252	      0.14203574	      0.54998835	      0.11026189	     -0.45117792	      0.64606330	      0.10311190	      1.04841293	      0.97499076	      0.79808430	    -18.01842448	     -0.24334392	     -1.19691016	     11.76104922	     -0.41220424	    -13.56439090	    -18.46396694	      0.04334520	      1.51598267	     11.28044812	     -4.92855701	     -7.18389788	     10.94066426	     -6.79786035	    -13.35760362	    -14.55962893	     -0.41748717	      0.45232878	      6.82558863	     -5.26738720	     -7.28294780	      5.94013623	     -3.48851768	      2.62463525	    -11.13178286	     -7.75315899	     -3.93705579	      9.29531280	     30.29632298	     15.21056520	      6.83704437	     -6.83704437	    -15.21056520	      1.88211176	    -29.48563878	     38.41029736	     29.48563878	    -16.39922680	     17.26978853	      6.75737107	      0.00000000	      4.92428064	     -5.60999724	      6.07249856	     -7.94768096	     12.76793383	      1.11192967	    -16.33685424	      1.98329987	      4.13183619	     26.80551953	     27.88648003	      9.56284187	      3.35313944	     17.62840402	     42.86079364	     12.11548626	     12.31483342	     19.42785946	     45.03385052	     23.13456447	     -7.70890452	      8.12665784	     39.65428466	     20.67033233	    -11.70763856	     -7.52280299	     -4.09400372	      9.66586384	     25.07963953	     15.81692358	      7.10959829	     -7.10959829	    -15.81692358	      1.95714081	    -26.27489466	     39.94149658	     11.40433135	      4.99512859	     16.74340998	      4.77750146	      0.00000000	     15.39667122	     -7.53685602	     10.90132664	     -9.50423768	      9.72867389	      2.24628902	    -12.62021366	      8.31925164	      5.75408353	     26.91894434	     31.15841604	     18.62915861	      5.83523643	     20.89716077	     38.24666173	     20.16414817	     18.07313027	     19.47921043	     48.17753104	     20.31138378	     -7.72717837	      2.49606061	     45.71511183	     24.22135034	      2.31945405
      0.00830000	    -20.41368475	     91.26161349	    -70.33042495	      0.27552844	     -0.04042055	      0.92172189	     -6.71453922	     -2.20573764	     -1.55422756	      3.06640974	     -1.93862293	     -0.84930436	      1.34612499	     -0.15066129	     -0.20178115	      0.28718208	      0.23749057	      0.07784900	     -0.07769640	      0.38140075	     -0.04891047	      0.16470173	      0.53590602	      0.06731071	     -0.52834795	      0.63502684	      0.02712828	      1.32118439	      0.98372434	      0.70926459	    -18.59471334	     -0.38251573	     -1.22047080	     12.15253102	     -0.39815275	    -12.99956457	    -18.69329651	      0.57982525	      1.71741151	     11.59793923	     -5.97524121	     -7.06630547	     11.45768135	     -6.86764944	    -12.84008632	    -15.02425489	      0.06624635	      0.60470344	      6.87169757	     -6.26505321	     -7.21341183	      6.48889297	     -3.71182261	      3.01366183	    -11.00941283	     -7.54400637	     -3.87972386	      9.15995322	     29.75105889	     14.98906694	      6.73748243	     -6.73748243	    -14.98906694	      1.85470420	    -29.28582440	     37.85096153	     29.28582440	    -15.57350148	     17.59364705	      6.57660294	      0.00000000	      4.97893691	     -5.58741284	      5.98302159	     -7.81440791	     12.90263710	      1.16965060	    -16.25140081	      1.96941153	      4.11771996	     26.93267459	     27.97567088	      9.57958255	      3.36741623	     17.66119367	     42.84768128	     12.07737723	     12.20872610	     19.34932720	     45.06355536	     23.09887404	     -7.80380220	      7.97240538	     39.65474580	     20.48975584	    -11.33005337	     -7.44617829	     -4.06440322	      9.59597763	     24.53323208	     15.70256392	      7.05819441	     -7.05819441	    -15.70256392	      1.94299027	    -26.14718396	     39.65271123	     11.61004744	      5.07522831	     16.97415171	      4.67491882	      0.00000000	     15.32390426	     -7.56622078	     10.89958350	     -9.28957448	      9.83549942	      2.31793051	    -12.55342937	      8.28327869	      5.75722497	     27.13277795	     31.17494108	     18.59821321	      5.86646289	     20.93393554	     38.24978377	     20.12120110	     18.01275014	     19.44539723	     48.21286877	     20.21412066	     -7.87329430	      2.35764166	     45.72333516	     24.06196509	      2.31945405
      0.01670000	    -20.39892168	     91.20684948	    -70.31657770	      0.27386819	     -0.03992715	      0.92171959	     -6.78794363	     -2.15834427	     -1.46810532	      2.90564919	     -1.86559725	     -0.84365423	      1.32593600	     -0.14989268	     -0.22759240	      0.29438501	      0.22731592	      0.05110464	     -0.03391704	      0.35824374	     -0.06504795	      0.20882543	      0.50781253	      0.04057978	     -0.44793567	      0.60695856	      0.02304361	      1.29260594	      0.97462922	      0.76186666	    -18.55562952	     -0.31587799	     -1.31703172	     12.13445521	     -0.29613964	    -13.03147231	    -18.72826095	      0.42628736	      1.75046368	     11.76595616	     -5.75587206	     -7.05301721	     11.64589872	     -7.02495723	    -12.76336204	    -15.41269982	     -0.08218336	      0.60126642	      6.91176710	     -6.10428500	     -7.20307621	      6.47380393	     -3.70804210	      3.02067242	    -11.11204945	     -7.48922953	     -3.86139853	      9.11668748	     29.37754021	     14.91826821	      6.70565889	     -6.70565889	    -14.91826821	      1.84594377	    -28.77661771	     37.67217789	     28.77661771	    -14.46635021	     17.89228632	      6.57083396	      0.00000000	      4.82188663	     -5.72364699	      5.89206630	     -7.73884221	     12.97539850	      1.19766382	    -16.21814187	      1.96560462	      4.06392716	     26.96633172	     27.99030704	      9.57612177	      3.30766302	     17.68341803	     42.85425421	     12.06767472	     12.14642171	     19.35641265	     45.10457653	     23.09509194	     -7.87477204	      7.95781242	     39.70099833	     20.44152544	    -11.58002187	     -7.41657520	     -4.05103754	      9.56442151	     23.93256633	     15.65092646	      7.03498373	     -7.03498373	    -15.65092646	      1.93660080	    -25.37283333	     39.52231435	     11.84504818	      5.20016749	     17.07362672	      4.69538694	      0.00000000	     14.81953145	     -7.62167837	     10.83172655	     -9.21578357	      9.87716392	      2.33996673	    -12.52360053	      8.27266292	      5.72069336	     27.18781053	     31.16534457	     18.58000511	      5.82241234	     20.98022546	     38.26980187	     20.11191970	     17.97038713	     19.48475445	     48.25724606	     20.18599555	     -7.94173883	      2.36815195	     45.77924726	     24.02139382	      2.31945405
      0.02500000	    -20.36045729	     91.23427449	    -70.30429098	      0.27199493	     -0.03919040	      0.92163673	     -6.91072787	     -2.17402558	     -1.44426147	      2.97659834	     -1.83913562	     -0.84686755	      1.34798944	     -0.12086066	     -0.23859310	      0.25401240	      0.24947666	      0.05827113	     -0.06078585	      0.36035974	     -0.07572154	      0.23822263	      0.50403828	      0.00963062	     -0.46031866	      0.60496886	     -0.01025127	      1.34633717	      0.99842864	      0.74016254	    -18.60249742	     -0.31525365	     -1.36010489	     12.21677026	     -0.20922441	    -12.96384054	    -18.76934315	      0.38995655	      1.84226878	     11.84678584	     -5.80685169	     -6.95398254	     11.98420627	     -7.20474921	    -12.62137969	    -15.90488480	     -0.09926040	      0.66164236	      6.96655709	     -6.12225490	     -7.13400191	      6.52261010	     -3.77855523	      3.09527113	    -11.07760527	     -7.40205006	     -3.83320116	      9.05011403	     29.12365273	     14.80932945	      6.65669167	     -6.65669167	    -14.80932945	      1.83246400	    -28.32033058	     37.39708161	     28.32033058	    -13.53941257	     18.18468803	      6.47322004	      0.00000000	      4.79753401	     -5.69309248	      5.79884203	     -7.67373960	     13.03252674	      1.20915892	    -16.19291580	      1.95791675	      4.04557219	     27.03980369	     28.01809451	      9.57461693	      3.28822788	     17.71490626	     42.86638632	     12.05853849	     12.09685997	     19.34676190	     45.14352087	     23.08956608	     -7.95173102	      7.90841037	     39.73528396	     20.38521400	    -11.59130228	     -7.33536686	     -4.02481636	      9.50251383	     23.51620429	     15.54962263	      6.98944835	     -6.98944835	    -15.54962263	      1.92406575	    -24.80091097	     39.26649807	     12.04961706	      5.29964670	     17.19194455	      4.61666858	      0.00000000	     14.50896903	     -7.61036223	     10.76170379	     -9.13355794	      9.91783410	      2.35270524	    -12.50096964	      8.25867215	      5.71428476	     27.28214012	     31.16627420	     18.56236548	      5.81072577	     21.02155405	     38.28787041	     20.09996536	     17.93500346	     19.50328812	     48.29743016	     20.15242030	     -8.01786052	      2.34234923	     45.82047457	     23.97229596	      2.31945405
